<svg xmlns="http://www.w3.org/2000/svg"  viewBox="0 0 64 64" width="512px" height="512px" baseProfile="basic"><path fill="#d8f26d" d="M51,52H20c-2.209,0-4-1.791-4-4V12c0-2.209,1.791-4,4-4h31c2.209,0,4,1.791,4,4v36	C55,50.209,53.209,52,51,52z"/><rect width="39" height="12" x="16" y="19" fill="#bde631"/><ellipse cx="31" cy="61" opacity=".3" rx="21.5" ry="3"/><rect width="38" height="12" x="17" y="31" fill="#98c900"/><path fill="#548500" d="M51,55H20c-2.209,0-4-1.791-4-4v-8h39v8C55,53.209,53.209,55,51,55z"/><path d="M55,51V33.003c-0.162,0-0.326,0.005-0.492,0.021c-2.6,0.248-4.508,2.58-4.508,5.192V49 c0,0.552-0.448,1-1,1h-4c-2.761,0-4.997,2.239-4.997,5H51C53.209,55,55,53.209,55,51z" opacity=".15"/><path fill="#548500" d="M27,43H11c-1.657,0-3-1.343-3-3V24c0-1.657,1.343-3,3-3h16c1.657,0,3,1.343,3,3v16 C30,41.657,28.657,43,27,43z"/><path fill="#fff" d="M8,24v13.997c2.761,0,5-2.236,5-4.997v-6c0-0.552,0.448-1,1-1h2 c2.761,0,4.997-2.239,4.997-5H11C9.343,21,8,22.343,8,24z" opacity=".3"/><line x1="12.5" x2="15.5" y1="24.5" y2="24.5" fill="none" stroke="#fff" stroke-linecap="round" stroke-linejoin="round" stroke-miterlimit="10" stroke-width="3"/><g><path fill="#edff9c" d="M15.323,37.943c-0.328,0-0.6-0.088-0.813-0.263c-0.214-0.175-0.337-0.4-0.37-0.674 c-0.033-0.274,0.055-0.553,0.263-0.838l3.206-4.242l-3.058-4.077c-0.219-0.296-0.312-0.578-0.28-0.847 c0.033-0.268,0.154-0.493,0.362-0.674c0.208-0.181,0.477-0.271,0.805-0.271c0.494,0,0.937,0.274,1.332,0.822l2.302,3.189 l2.285-3.189c0.208-0.285,0.416-0.494,0.625-0.625c0.208-0.132,0.449-0.197,0.723-0.197c0.318,0,0.583,0.088,0.797,0.263 c0.213,0.175,0.337,0.4,0.37,0.674c0.033,0.274-0.06,0.559-0.28,0.855l-3.074,4.077l3.19,4.242 c0.219,0.285,0.315,0.565,0.288,0.838c-0.027,0.274-0.148,0.499-0.362,0.674c-0.213,0.175-0.49,0.263-0.83,0.263 c-0.263,0-0.496-0.066-0.698-0.197c-0.203-0.131-0.414-0.345-0.633-0.641L19.055,33.8l-2.4,3.305 c-0.209,0.296-0.417,0.51-0.625,0.641C15.822,37.877,15.586,37.943,15.323,37.943z"/></g></svg>